<svg data-v-d3f97b9e="" xmlns="http://www.w3.org/2000/svg" viewBox="0 0 717 95"><!----><!----><!----><g data-v-d3f97b9e="" id="7c3bfd22-4a01-4aaf-95e3-bce00ba9a240" fill="#000000" transform="matrix(5.791505450303629,0,0,5.791505450303629,100.06963609680673,-3.7060572391592217)"><path d="M0.87 3.98L0.87 13.78L2.66 13.78L2.66 5.94L2.83 5.94L4.86 13.78L7.57 13.78L9.60 5.94L9.77 5.94L9.77 13.78L11.56 13.78L11.56 3.98L8.34 3.98L6.30 11.84L6.13 11.84L4.09 3.98ZM12.94 8.43L14.36 9.35C14.80 8.62 15.37 8.15 16.30 8.15C17.25 8.15 17.75 8.67 17.75 9.32L17.75 9.49L14.97 9.80C13.68 9.94 12.80 10.70 12.80 11.80C12.80 13.13 13.83 13.97 15.40 13.97C16.90 13.97 17.42 13.24 17.58 12.94L17.78 12.94L17.78 13.78L19.52 13.78L19.52 9.34C19.52 7.71 18.28 6.64 16.39 6.64C14.70 6.64 13.76 7.39 12.94 8.43ZM14.64 11.70C14.64 11.30 14.97 11.06 15.62 10.98L17.75 10.72L17.75 10.84C17.75 11.79 17.07 12.52 15.83 12.52C15.05 12.52 14.64 12.18 14.64 11.70ZM20.41 6.83L20.41 8.37L22.18 8.37L22.18 12.43C22.18 13.22 22.76 13.78 23.55 13.78L25.45 13.78L25.45 12.24L24.33 12.24C24.08 12.24 23.94 12.10 23.94 11.82L23.94 8.37L25.84 8.37L25.84 6.83L23.94 6.83L23.94 4.68L22.18 4.68L22.18 6.83ZM26.82 8.43L28.25 9.35C28.69 8.62 29.26 8.15 30.18 8.15C31.14 8.15 31.64 8.67 31.64 9.32L31.64 9.49L28.85 9.80C27.57 9.94 26.68 10.70 26.68 11.80C26.68 13.13 27.72 13.97 29.29 13.97C30.79 13.97 31.30 13.24 31.47 12.94L31.67 12.94L31.67 13.78L33.40 13.78L33.40 9.34C33.40 7.71 32.17 6.64 30.28 6.64C28.59 6.64 27.65 7.39 26.82 8.43ZM28.53 11.70C28.53 11.30 28.85 11.06 29.51 10.98L31.64 10.72L31.64 10.84C31.64 11.79 30.95 12.52 29.72 12.52C28.94 12.52 28.53 12.18 28.53 11.70ZM35 6.83L35 13.78L36.76 13.78L36.76 10.19C36.76 8.96 37.37 8.26 38.50 8.26C39.51 8.26 40.07 8.83 40.07 9.80L40.07 13.78L41.83 13.78L41.83 9.63C41.83 7.83 40.67 6.72 39.13 6.72C37.86 6.72 37.21 7.31 36.93 7.95L36.74 7.95L36.74 6.83ZM47.24 3.98L47.24 13.78L49.03 13.78L49.03 5.94L49.20 5.94L51.23 13.78L53.94 13.78L55.97 5.94L56.14 5.94L56.14 13.78L57.93 13.78L57.93 3.98L54.71 3.98L52.67 11.84L52.50 11.84L50.46 3.98ZM59.30 8.43L60.73 9.35C61.17 8.62 61.74 8.15 62.66 8.15C63.62 8.15 64.12 8.67 64.12 9.32L64.12 9.49L61.33 9.80C60.05 9.94 59.16 10.70 59.16 11.80C59.16 13.13 60.20 13.97 61.77 13.97C63.27 13.97 63.78 13.24 63.95 12.94L64.15 12.94L64.15 13.78L65.88 13.78L65.88 9.34C65.88 7.71 64.65 6.64 62.76 6.64C61.07 6.64 60.13 7.39 59.30 8.43ZM61.01 11.70C61.01 11.30 61.33 11.06 61.99 10.98L64.12 10.72L64.12 10.84C64.12 11.79 63.43 12.52 62.20 12.52C61.42 12.52 61.01 12.18 61.01 11.70ZM67.23 8.79C67.23 10.08 68.11 10.68 70.06 10.95L70.27 10.98C71.02 11.07 71.74 11.13 71.74 11.65C71.74 12.19 71.08 12.49 70.39 12.49C69.50 12.49 68.57 12.04 68.14 11.13L66.72 12.01C67.37 12.99 68.43 13.97 70.35 13.97C72.20 13.97 73.47 12.98 73.47 11.62C73.47 10.35 72.65 9.79 70.42 9.49L70.21 9.46C69.48 9.37 68.96 9.28 68.96 8.78C68.96 8.36 69.33 8.09 69.96 8.09C70.88 8.09 71.58 8.62 72.11 9.25L73.39 8.25C72.45 7.27 71.44 6.64 70.01 6.64C68.40 6.64 67.23 7.50 67.23 8.79ZM74.62 3.98L74.62 13.78L76.38 13.78L76.38 10.19C76.38 8.96 76.99 8.26 78.12 8.26C79.13 8.26 79.69 8.83 79.69 9.80L79.69 13.78L81.45 13.78L81.45 9.63C81.45 7.83 80.29 6.72 78.75 6.72C77.48 6.72 76.83 7.31 76.55 7.95L76.38 7.95L76.38 3.98ZM84.78 6.83L83.05 6.83L83.05 13.78L84.81 13.78L84.81 9.88C84.81 8.90 85.46 8.43 86.35 8.43L87.39 8.43L87.39 6.80L86.69 6.80C85.81 6.80 85.22 7.07 84.95 7.84L84.78 7.84ZM88.09 8.43L89.52 9.35C89.95 8.62 90.52 8.15 91.45 8.15C92.40 8.15 92.90 8.67 92.90 9.32L92.90 9.49L90.12 9.80C88.83 9.94 87.95 10.70 87.95 11.80C87.95 13.13 88.98 13.97 90.55 13.97C92.05 13.97 92.57 13.24 92.74 12.94L92.93 12.94L92.93 13.78L94.67 13.78L94.67 9.34C94.67 7.71 93.44 6.64 91.55 6.64C89.85 6.64 88.91 7.39 88.09 8.43ZM89.80 11.70C89.80 11.30 90.12 11.06 90.78 10.98L92.90 10.72L92.90 10.84C92.90 11.79 92.22 12.52 90.99 12.52C90.20 12.52 89.80 12.18 89.80 11.70ZM103.49 6.83L101.02 6.83L98.20 9.21L98.03 9.21L98.03 3.98L96.26 3.98L96.26 13.78L98.03 13.78L98.03 11.38L99.09 10.50L101.33 13.78L103.38 13.78L100.34 9.45ZM103.99 4.82C103.99 5.53 104.54 6.02 105.24 6.02C105.94 6.02 106.48 5.53 106.48 4.82C106.48 4.10 105.94 3.61 105.24 3.61C104.54 3.61 103.99 4.10 103.99 4.82ZM106.12 6.83L104.36 6.83L104.36 13.78L106.12 13.78Z"></path></g><linearGradient data-v-d3f97b9e="" gradientTransform="rotate(25)" id="7d414d01-febc-4c66-8506-648fbb584479" x1="0%" y1="0%" x2="100%" y2="0%"><stop data-v-d3f97b9e="" offset="0%" style="stop-color: rgb(233, 142, 13); stop-opacity: 1;"></stop><stop data-v-d3f97b9e="" offset="100%" style="stop-color: rgb(21, 54, 241); stop-opacity: 1;"></stop></linearGradient><g data-v-d3f97b9e="" id="f1da6966-d320-4f7c-8b69-f4a0ce62f6c7" transform="matrix(1.0241666158040366,0,0,1.0241666158040366,-7.747455031712896,-2.2743805768490972)" stroke="none" fill="url(#7d414d01-febc-4c66-8506-648fbb584479)"><path d="M87.4 24.4L51.6 3.7c-1.6-.9-3.6-.9-5.2 0L10.1 24.6h.4c-1.7.9-2.5 2.7-2.5 4.7v39.5c0 1.9.5 3.6 2.2 4.5l36.4 21.2c.8.5 1.6.7 2.5.7h.2c.9 0 1.8-.2 2.6-.7l36.6-21.2c1.6-.9 2.6-2.7 2.6-4.5V29.3c-.1-2.3-1.6-4.2-3.7-4.9zM49 14.2l25.8 14.9L49 44 23.2 29.1 49 14.2zM18 65.8V37.9L43 53v28L18 65.8zM53 81V52.9l28-15.1v28.1L53 81z"></path></g><!----></svg>